<svg width="59" height="65" viewBox="0 0 59 65" fill="none" xmlns="http://www.w3.org/2000/svg">
<path d="M29.306 1.92952L2.58984 48.2017L4.97501 49.5788L31.6912 3.30663L29.306 1.92952Z" fill="#E535AB"/>
<path d="M55.6157 44.6189H2.18359V47.3731H55.6157V44.6189Z" fill="#E535AB"/>
<path d="M4.95918 43.8414L3.58203 46.2266L30.2961 61.6499L31.6733 59.2647L4.95918 43.8414Z" fill="#E535AB"/>
<path d="M27.9455 3.69808L26.5684 6.08325L53.2822 21.507L54.6593 19.1219L27.9455 3.69808Z" fill="#E535AB"/>
<path d="M30.1904 3.38628L3.47656 18.8101L4.85367 21.1952L31.5675 5.77145L30.1904 3.38628Z" fill="#E535AB"/>
<path d="M28.4633 2.31576L26.0781 3.69287L52.7943 49.965L55.1794 48.5879L28.4633 2.31576Z" fill="#E535AB"/>
<path d="M7.1429 17.0767H4.38867V47.9241H7.1429V17.0767Z" fill="#E535AB"/>
<path d="M53.4124 17.0767H50.6582V47.9241H53.4124V17.0767Z" fill="#E535AB"/>
<path d="M51.5017 44.6631L28.127 58.1587L29.2287 60.0668L52.6034 46.5713L51.5017 44.6631Z" fill="#E535AB"/>
<path d="M57.2691 49.025C55.6166 51.7792 52.3115 52.8809 49.5573 51.2284C46.803 49.5758 45.7013 45.7199 46.803 42.9657C48.4556 40.2114 52.3115 39.1097 55.0657 40.7623C57.82 42.4148 58.9217 46.2707 57.2691 49.025Z" fill="#E535AB"/>
<path d="M10.9981 22.0332C9.34552 24.7874 5.4896 25.8891 2.73536 24.2366C-0.018869 22.5841 -0.569716 19.279 0.531977 16.5247C1.63367 13.7705 5.4896 12.6688 8.24383 14.3214C11.5489 15.9739 12.6506 19.279 10.9981 22.0332Z" fill="#E535AB"/>
<path d="M0.531977 49.025C-0.569716 46.2707 -0.018869 42.4148 2.73536 40.7623C5.4896 39.1097 9.34552 40.2114 10.9981 42.9657C12.6506 45.7199 11.5489 49.5758 8.79468 50.6775C6.04044 52.3301 2.18452 51.7792 0.531977 49.025Z" fill="#E535AB"/>
<path d="M46.8035 22.0332C45.7018 19.279 46.2526 15.9739 49.0068 14.3214C51.7611 12.6688 55.0662 13.7705 56.7187 16.5247C58.3712 19.279 57.2695 22.5841 54.5153 24.2366C52.3119 25.8891 48.456 24.7874 46.8035 22.0332Z" fill="#E535AB"/>
<path d="M29.1745 65C25.8695 65 23.1152 62.2457 23.1152 58.9407C23.1152 55.6356 25.8695 52.8813 29.1745 52.8813C32.4796 52.8813 35.2339 55.6356 35.2339 58.9407C34.683 62.2457 31.9288 65 29.1745 65Z" fill="#E535AB"/>
<path d="M29.1745 11.5678C25.8695 11.5678 23.1152 8.81354 23.1152 5.50847C23.1152 2.20339 25.8695 0 29.1745 0C32.4796 0 35.2339 2.75423 35.2339 6.05931C35.2339 9.36439 31.9288 11.5678 29.1745 11.5678Z" fill="#E535AB"/>
</svg>
